<svg width="484" height="116" viewBox="0 0 484 116" fill="none" xmlns="http://www.w3.org/2000/svg">
<path fill-rule="evenodd" clip-rule="evenodd" d="M23.6328 47.8125H37.4609C42.1645 47.8125 45.0526 46.6372 46.7616 44.8636C48.6065 42.9492 49.6484 40.3274 49.6484 36.6797C49.6484 33.1935 48.624 30.8571 46.8853 29.2497L46.8748 29.24L46.8645 29.2302C45.1299 27.5958 42.5725 26.6016 38.7969 26.6016C35.4943 26.6016 32.9391 27.5019 30.9277 29.1541L30.9152 29.1644L30.9026 29.1745C28.9995 30.7038 28.0859 32.6029 28.0859 35.1328V38.1328H1.76562V35.1328C1.76562 29.2197 3.35842 23.8463 6.57134 19.1059L6.57542 19.0999C9.81706 14.342 14.2899 10.6778 19.8866 8.08299L19.8959 8.07864C25.5258 5.49195 31.6768 4.21875 38.3047 4.21875C49.5935 4.21875 58.8475 6.93334 65.6919 12.7301C72.6039 18.5365 75.9688 26.5539 75.9688 36.3984C75.9688 41.7446 74.3235 46.6697 71.1071 51.0987C69.1197 53.8355 66.7461 56.1696 64.0023 58.1002C67.6166 60.1441 70.5664 62.7606 72.7692 65.9881C76.0133 70.6725 77.5859 76.1576 77.5859 82.3125C77.5859 92.2448 73.9005 100.403 66.5131 106.492C59.2331 112.531 49.7297 115.406 38.3047 115.406C27.539 115.406 18.4503 112.555 11.2908 106.632L11.2826 106.625C4.08999 100.631 0.5 92.6418 0.5 82.9453V79.9453H26.8203V82.9453C26.8203 85.9294 27.8793 88.225 30.0462 90.0762C32.3494 92.0042 35.2034 93.0234 38.7969 93.0234C43.0999 93.0234 46.0587 91.9055 48.0716 90.0322C50.1546 88.0903 51.2656 85.5245 51.2656 82.0312C51.2656 77.4626 50.0215 74.5649 48.0298 72.7558C45.9834 70.897 42.6207 69.7031 37.3906 69.7031H23.6328V47.8125ZM50.1172 92.2266C47.3984 94.7578 43.625 96.0234 38.7969 96.0234C34.5781 96.0234 31.0156 94.8047 28.1094 92.3672C25.25 89.9297 23.8203 86.7891 23.8203 82.9453H3.5C3.5 83.9684 3.54314 84.9684 3.62941 85.9453C4.29018 93.4272 7.48142 99.5522 13.2031 104.32C19.7188 109.711 28.0859 112.406 38.3047 112.406C49.2266 112.406 57.9922 109.664 64.6016 104.18C71.2578 98.6953 74.5859 91.4062 74.5859 82.3125C74.5859 76.6875 73.1562 71.8125 70.2969 67.6875C68.1106 64.481 65.0321 61.8976 61.0614 59.9373C59.924 59.3758 58.7135 58.8655 57.4297 58.4062C58.6481 57.8524 59.8051 57.2356 60.9007 56.5558C63.978 54.6463 66.571 52.2397 68.6797 49.3359C71.5391 45.3984 72.9688 41.0859 72.9688 36.3984C72.9688 27.3047 69.8984 20.1797 63.7578 15.0234C57.6172 9.82031 49.1328 7.21875 38.3047 7.21875C32.0703 7.21875 26.3516 8.41406 21.1484 10.8047C15.9922 13.1953 11.9609 16.5234 9.05469 20.7891C6.74138 24.2021 5.36383 27.9834 4.92205 32.1328C4.81777 33.1123 4.76562 34.1123 4.76562 35.1328H25.0859C25.0859 31.7109 26.3984 28.9453 29.0234 26.8359C31.6484 24.6797 34.9062 23.6016 38.7969 23.6016C43.1094 23.6016 46.4844 24.75 48.9219 27.0469C51.4062 29.3438 52.6484 32.5547 52.6484 36.6797C52.6484 40.9453 51.4062 44.3672 48.9219 46.9453C46.4375 49.5234 42.6172 50.8125 37.4609 50.8125H26.6328V66.7031H37.3906C48.6406 66.7031 54.2656 71.8125 54.2656 82.0312C54.2656 86.25 52.8828 89.6484 50.1172 92.2266ZM113.938 114H87.5469V0H113.938V114ZM133.384 104.29L133.377 104.283C125.721 96.782 122 86.8419 122 74.7891V72.8203C122 64.7873 123.554 57.5043 126.736 51.0378C129.925 44.511 134.479 39.4189 140.401 35.8658C146.347 32.2786 153.078 30.5156 160.508 30.5156C171.597 30.5156 180.644 34.0426 187.265 41.3398C193.924 48.6259 197.047 58.7495 197.047 71.2734V82.5703H149.31C150.164 85.3071 151.582 87.5242 153.525 89.3024C156.228 91.7358 159.674 93.0234 164.094 93.0234C171.091 93.0234 176.295 90.543 180.076 85.6752L182.285 82.8322L196.257 98.4771L194.88 100.426C191.507 105.201 186.959 108.899 181.327 111.537L181.317 111.542L181.307 111.546C175.672 114.136 169.472 115.406 162.758 115.406C150.936 115.406 141.053 111.755 133.384 104.29ZM151.508 91.5234C148.916 89.1534 147.143 86.169 146.189 82.5703C145.935 81.6137 145.739 80.6137 145.602 79.5703H194.047V71.2734C194.047 59.2266 191.047 49.9219 185.047 43.3594C179.094 36.7969 170.914 33.5156 160.508 33.5156C153.57 33.5156 147.383 35.1562 141.945 38.4375C136.555 41.6719 132.383 46.3125 129.43 52.3594C126.477 58.3594 125 65.1797 125 72.8203V74.7891C125 86.1797 128.492 95.2969 135.477 102.141C142.508 108.984 151.602 112.406 162.758 112.406C169.086 112.406 174.852 111.211 180.055 108.82C185.258 106.383 189.383 103.008 192.43 98.6953L182.445 87.5156C181.814 88.3286 181.147 89.0833 180.445 89.7798C176.25 93.9422 170.8 96.0234 164.094 96.0234C159.031 96.0234 154.836 94.5234 151.508 91.5234ZM168.249 55.7644L168.24 55.754C166.604 54.0197 164.155 52.9688 160.438 52.9688C157.165 52.9688 154.71 54.034 152.799 56.0809C151.372 57.6467 150.223 59.8167 149.456 62.7188H171.001C170.718 59.5105 169.718 57.2915 168.259 55.7746L168.249 55.7644ZM174.011 62.7188C174.046 63.1683 174.068 63.6293 174.078 64.1016V65.7188H145.812C145.958 64.6683 146.143 63.6683 146.365 62.7188C147.215 59.0921 148.625 56.2015 150.594 54.0469C153.125 51.3281 156.406 49.9688 160.438 49.9688C164.75 49.9688 168.078 51.2109 170.422 53.6953C172.52 55.877 173.716 58.8848 174.011 62.7188ZM227.488 31.9219L227.848 36.759C233.164 32.5873 239.663 30.5156 247.203 30.5156C252.491 30.5156 257.168 31.5599 261.091 33.8152C263.738 35.3371 265.956 37.3619 267.752 39.8457C273.464 33.6278 281.036 30.5156 290.234 30.5156C299.073 30.5156 306.185 33.1229 310.953 38.8273C315.629 44.376 317.703 52.4191 317.703 62.4141V114H291.312V62.4844C291.312 58.4482 290.502 56.1798 289.503 55.0149L289.492 55.0017L289.481 54.9883C288.639 53.9824 286.773 53.0391 282.852 53.0391C280.295 53.0391 278.339 53.6422 276.819 54.6893C275.402 55.6658 274.167 57.1638 273.196 59.362L273.27 114H246.945V62.5547C246.945 58.4195 246.109 56.129 245.093 54.9753C244.191 53.9519 242.295 53.0391 238.484 53.0391C236.021 53.0391 234.072 53.5472 232.523 54.435C231.153 55.22 229.961 56.3784 228.969 58.0075V114H202.648V31.9219H227.488ZM225.969 57.2109C228.547 52.4297 232.719 50.0391 238.484 50.0391C242.656 50.0391 245.609 51.0234 247.344 52.9922C249.078 54.9609 249.945 58.1484 249.945 62.5547V111H270.266L270.195 58.7578C272.539 52.9453 276.758 50.0391 282.852 50.0391C287.117 50.0391 290.094 51.0469 291.781 53.0625C293.469 55.0312 294.312 58.1719 294.312 62.4844V111H314.703V62.4141C314.703 52.7578 312.688 45.5391 308.656 40.7578C304.625 35.9297 298.484 33.5156 290.234 33.5156C281.535 33.5156 274.595 36.5072 269.413 42.4904C268.703 43.3099 268.027 44.1855 267.383 45.1172C266.897 44.0891 266.357 43.1294 265.762 42.238C261.884 36.4231 255.698 33.5156 247.203 33.5156C239.513 33.5156 233.153 35.8307 228.123 40.461C227.144 41.3627 226.215 42.3523 225.336 43.4297L224.703 34.9219H205.648V111H225.969V57.2109ZM342.56 35.7888L342.57 35.7831C348.575 32.2415 355.467 30.5156 363.148 30.5156C374.076 30.5156 383.23 33.8828 390.336 40.7819C397.484 47.6748 401.35 56.9551 402.141 68.3231L402.146 68.3866L402.289 73.6938V73.7344C402.289 85.9899 398.852 96.1463 391.723 103.891L391.716 103.898C384.549 111.633 374.961 115.406 363.289 115.406C351.617 115.406 342.011 111.633 334.799 103.906L334.792 103.898C327.637 96.178 324.219 85.8159 324.219 73.1719V72.2578C324.219 64.3191 325.75 57.1285 328.886 50.7536C332.038 44.3483 336.602 39.3326 342.56 35.7888ZM354.071 57.5301L354.066 57.5371C351.883 60.6243 350.539 65.846 350.539 73.7344C350.539 80.6362 351.849 85.4548 354.061 88.5874C356.162 91.5193 359.102 93.0234 363.289 93.0234C367.317 93.0234 370.236 91.555 372.399 88.6274C374.597 85.6061 375.969 80.3458 375.969 72.2578C375.969 65.5172 374.644 60.7343 372.375 57.5428C370.205 54.4901 367.251 52.9688 363.148 52.9688C359.105 52.9688 356.203 54.4792 354.076 57.5231L354.071 57.5301ZM374.82 90.3984C372.055 94.1484 368.211 96.0234 363.289 96.0234C358.227 96.0234 354.336 94.125 351.617 90.3281C348.898 86.4844 347.539 80.9531 347.539 73.7344C347.539 65.625 348.898 59.6484 351.617 55.8047C354.336 51.9141 358.18 49.9688 363.148 49.9688C368.164 49.9688 372.055 51.9141 374.82 55.8047C377.586 59.6953 378.969 65.1797 378.969 72.2578C378.969 80.5547 377.586 86.6016 374.82 90.3984ZM423.982 35.7888L423.992 35.7831C429.997 32.2415 436.889 30.5156 444.57 30.5156C455.497 30.5156 464.651 33.8828 471.758 40.7819C478.906 47.6748 482.772 56.9551 483.563 68.3231L483.568 68.3866L483.711 73.6938V73.7344C483.711 85.9899 480.274 96.1463 473.145 103.891L473.138 103.898C465.97 111.633 456.382 115.406 444.711 115.406C433.039 115.406 423.433 111.633 416.221 103.906L416.214 103.898C409.059 96.178 405.641 85.8159 405.641 73.1719V72.2578C405.641 64.3191 407.171 57.1285 410.308 50.7536C413.46 44.3483 418.024 39.3326 423.982 35.7888ZM435.493 57.5301L435.488 57.5371C433.305 60.6243 431.961 65.846 431.961 73.7344C431.961 80.6362 433.27 85.4548 435.482 88.5874C437.584 91.5193 440.524 93.0234 444.711 93.0234C448.738 93.0234 451.658 91.555 453.821 88.6274C456.019 85.6061 457.391 80.3458 457.391 72.2578C457.391 65.5172 456.066 60.7343 453.797 57.5428C451.627 54.4901 448.673 52.9688 444.57 52.9688C440.527 52.9688 437.625 54.4792 435.498 57.5231L435.493 57.5301ZM456.242 90.3984C453.477 94.1484 449.633 96.0234 444.711 96.0234C439.648 96.0234 435.758 94.125 433.039 90.3281C430.32 86.4844 428.961 80.9531 428.961 73.7344C428.961 65.625 430.32 59.6484 433.039 55.8047C435.758 51.9141 439.602 49.9688 444.57 49.9688C449.586 49.9688 453.477 51.9141 456.242 55.8047C459.008 59.6953 460.391 65.1797 460.391 72.2578C460.391 80.5547 459.008 86.6016 456.242 90.3984ZM110.938 111V3H90.5469V111H110.938ZM331.578 52.0781C328.672 57.9844 327.219 64.7109 327.219 72.2578V73.1719C327.219 85.2656 330.477 94.8281 336.992 101.859C343.555 108.891 352.32 112.406 363.289 112.406C374.258 112.406 383 108.891 389.516 101.859C396.031 94.7812 399.289 85.4062 399.289 73.7344L399.148 68.5312C398.398 57.75 394.766 49.2188 388.25 42.9375C381.781 36.6562 373.414 33.5156 363.148 33.5156C355.93 33.5156 349.578 35.1328 344.094 38.3672C338.656 41.6016 334.484 46.1719 331.578 52.0781ZM413 52.0781C410.094 57.9844 408.641 64.7109 408.641 72.2578V73.1719C408.641 85.2656 411.898 94.8281 418.414 101.859C424.977 108.891 433.742 112.406 444.711 112.406C455.68 112.406 464.422 108.891 470.938 101.859C477.453 94.7812 480.711 85.4062 480.711 73.7344L480.57 68.5312C479.82 57.75 476.188 49.2188 469.672 42.9375C463.203 36.6562 454.836 33.5156 444.57 33.5156C437.352 33.5156 431 35.1328 425.516 38.3672C420.078 41.6016 415.906 46.1719 413 52.0781Z" fill="black"/>
</svg>
